<?xml version="1.0" encoding="utf-8"?>
<!-- Generator: Adobe Illustrator 21.1.0, SVG Export Plug-In . SVG Version: 6.00 Build 0)  -->
<svg version="1.1" id="Icons" xmlns="http://www.w3.org/2000/svg" xmlns:xlink="http://www.w3.org/1999/xlink" x="0px" y="0px"
	 viewBox="0 0 48 48" style="enable-background:new 0 0 48 48;" xml:space="preserve">
<style type="text/css">
	.st0{fill:#724F3D;}
	.st1{fill:#A86C4D;}
	.st2{fill:none;stroke:#45413C;stroke-linecap:round;stroke-linejoin:round;stroke-miterlimit:10;}
	.st3{fill:#FF87AF;}
	.st4{fill:#FF6196;}
	.st5{fill:#FFE500;stroke:#45413C;stroke-linecap:round;stroke-linejoin:round;stroke-miterlimit:10;}
	.st6{fill:#45413C;stroke:#45413C;stroke-linecap:round;stroke-linejoin:round;stroke-miterlimit:10;}
	.st7{fill:#FF6242;}
	.st8{fill:#FFA694;}
	.st9{fill:#FFAA54;}
	.st10{fill:#00B8F0;}
	.st11{fill:#009FD9;}
	.st12{fill:#FFE500;}
	.st13{fill:#EBCB00;}
	.st14{fill:#9CEB60;}
	.st15{fill:#6DD627;}
	.st16{fill:#724F3D;stroke:#45413C;stroke-linecap:round;stroke-linejoin:round;stroke-miterlimit:10;}
	.st17{fill:#BF8DF2;}
	.st18{fill:#9F5AE5;}
	.st19{fill:#00DFEB;}
	.st20{fill:#00C9D4;}
	.st21{fill:#FF866E;}
	.st22{fill:#00F5BC;}
	.st23{fill:#00DBA8;}
	.st24{fill:#FF8A14;}
	.st25{fill:#DE926A;}
	.st26{fill:#FFCEBF;stroke:#45413C;stroke-linecap:round;stroke-linejoin:round;stroke-miterlimit:10;}
	.st27{fill:#FFB59E;}
	.st28{fill:#FFCEBF;}
	.st29{fill:#A86C4D;stroke:#45413C;stroke-linecap:round;stroke-linejoin:round;stroke-miterlimit:10;}
	.st30{fill:#ADC4D9;stroke:#45413C;stroke-linecap:round;stroke-linejoin:round;stroke-miterlimit:10;}
	.st31{fill:#FFF48C;}
	.st32{fill:#C0DCEB;stroke:#45413C;stroke-linecap:round;stroke-linejoin:round;stroke-miterlimit:10;}
	.st33{fill:#4ACFFF;}
	.st34{fill:#45413C;}
	.st35{fill:#FFDCD1;}
	.st36{opacity:0.15;fill:#45413C;}
	.st37{fill:#FFB59E;stroke:#45413C;stroke-linecap:round;stroke-linejoin:round;stroke-miterlimit:10;}
	.st38{fill:#00DFEB;stroke:#45413C;stroke-linecap:round;stroke-linejoin:round;stroke-miterlimit:10;}
	.st39{fill:#F0F0F0;stroke:#45413C;stroke-linecap:round;stroke-linejoin:round;stroke-miterlimit:10;}
	.st40{fill:#E0366F;}
	.st41{fill:#FFE8E0;}
	.st42{fill:#EBCB00;stroke:#45413C;stroke-linecap:round;stroke-linejoin:round;stroke-miterlimit:10;}
	.st43{fill:#FFDA8F;}
	.st44{fill:#FFBE3D;}
	.st45{fill:#FFE9BD;}
	.st46{fill:#FFFFFF;}
	.st47{fill:#E0E0E0;}
	.st48{fill:#656769;}
	.st49{fill:#525252;}
	.st50{fill:#87898C;}
	.st51{fill:#656769;stroke:#45413C;stroke-linecap:round;stroke-linejoin:round;stroke-miterlimit:10;}
	.st52{fill:#B89558;}
	.st53{fill:#947746;}
	.st54{fill:#525252;stroke:#45413C;stroke-linecap:round;stroke-linejoin:round;stroke-miterlimit:10;}
	.st55{fill:#FFFFFF;stroke:#45413C;stroke-linecap:round;stroke-linejoin:round;stroke-miterlimit:10;}
	.st56{fill:#A6FBFF;stroke:#45413C;stroke-linecap:round;stroke-linejoin:round;stroke-miterlimit:10;}
</style>
<g>
	<ellipse id="XMLID_10264_" class="st36" cx="24" cy="45.5" rx="11" ry="1.5"/>
	<g>
		<path class="st28" d="M34.1,7c-1.4-0.2-2.6,0.8-2.8,2.1l-2,13.7l-2-13.6c-0.2-1.4-1.5-2.3-2.8-2.1c-1.4,0.2-2.3,1.5-2.1,2.8
			l1.5,10.3c-0.5-0.4-1.1-0.6-1.7-0.6c-1.5,0-2.7,1.2-2.7,2.7v2.4c0-1.5-1.2-2.7-2.7-2.7c-1.5,0-2.7,1.2-2.7,2.7v7.2
			c0,5.3,4,9.9,9.3,10.3c5.5,0.4,10.6-3.8,10.6-10.2c0-8.5,0-5.7,2.2-22.1C36.5,8.5,35.5,7.2,34.1,7z"/>
		<path class="st35" d="M22.7,12.4c0.1-1.3,1.2-2.3,2.6-2.3c1,0,1.9,0.6,2.4,1.5l-0.3-2.3c-0.2-1.4-1.5-2.3-2.8-2.1
			c-1.4,0.2-2.3,1.5-2.1,2.8L22.7,12.4z"/>
		<path class="st35" d="M34.1,7c-1.4-0.2-2.6,0.8-2.8,2.1L31,11.3c0.4-0.9,1.3-1.5,2.4-1.5c1.4,0,2.5,1,2.6,2.4
			c0.1-0.7,0.2-1.5,0.3-2.3C36.5,8.5,35.5,7.2,34.1,7z"/>
		<path id="XMLID_10263_" class="st2" d="M27.3,31.9L27.3,31.9c-2.5,0-4.4,2-4.4,4.4v1.3"/>
		<path class="st2" d="M34.1,7c-1.4-0.2-2.6,0.8-2.8,2.1l-2,13.7l-2-13.6c-0.2-1.4-1.5-2.3-2.8-2.1c-1.4,0.2-2.3,1.5-2.1,2.8
			l1.5,10.3c-0.5-0.4-1.1-0.6-1.7-0.6c-1.5,0-2.7,1.2-2.7,2.7v2.4c0-1.5-1.2-2.7-2.7-2.7c-1.5,0-2.7,1.2-2.7,2.7v7.2
			c0,5.3,4,9.9,9.3,10.3c5.5,0.4,10.6-3.8,10.6-10.2c0-8.5,0-5.7,2.2-22.1C36.5,8.5,35.5,7.2,34.1,7z"/>
		<path id="XMLID_10261_" class="st28" d="M16.8,22L16.8,22c-1.5,0-2.7,1.2-2.7,2.7v3.2c0,1.5,1.2,2.7,2.7,2.7h0
			c1.5,0,2.7-1.2,2.7-2.7v-3.2C19.4,23.2,18.3,22,16.8,22z"/>
		<path id="XMLID_10260_" class="st28" d="M22.1,19.6L22.1,19.6c-1.5,0-2.7,1.2-2.7,2.7v5.6c0,1.5,1.2,2.7,2.7,2.7h0
			c1.5,0,2.7-1.2,2.7-2.7v-5.6C24.8,20.8,23.6,19.6,22.1,19.6z"/>
		<path id="XMLID_10259_" class="st35" d="M16.8,22L16.8,22c-1.5,0-2.7,1.2-2.7,2.7V27c0-1.5,1.2-2.7,2.7-2.7h0
			c1.5,0,2.7,1.2,2.7,2.7v-2.4C19.4,23.2,18.3,22,16.8,22z"/>
		<path id="XMLID_10258_" class="st35" d="M22.1,19.6L22.1,19.6c-1.5,0-2.7,1.2-2.7,2.7v2.4c0-1.5,1.2-2.7,2.7-2.7h0
			c1.5,0,2.7,1.2,2.7,2.7v-2.4C24.8,20.8,23.6,19.6,22.1,19.6z"/>
		<path id="XMLID_10257_" class="st2" d="M16.8,22L16.8,22c-1.5,0-2.7,1.2-2.7,2.7v3.2c0,1.5,1.2,2.7,2.7,2.7h0
			c1.5,0,2.7-1.2,2.7-2.7v-3.2C19.4,23.2,18.3,22,16.8,22z"/>
		<path id="XMLID_10256_" class="st2" d="M22.1,19.6L22.1,19.6c-1.5,0-2.7,1.2-2.7,2.7v5.6c0,1.5,1.2,2.7,2.7,2.7h0
			c1.5,0,2.7-1.2,2.7-2.7v-5.6C24.8,20.8,23.6,19.6,22.1,19.6z"/>
		<path id="XMLID_10255_" class="st28" d="M34.1,31.9L34.1,31.9c0-2.9-2.3-5.2-5.2-5.2h-8.1c-0.8,0-1.4,0.6-1.4,1.4v0
			c0,2.1,1.7,3.8,3.8,3.8h4.1"/>
		<path id="XMLID_10254_" class="st35" d="M34.1,31.9c0-2.9-2.3-5.2-5.2-5.2h-8.1c-0.8,0-1.4,0.6-1.4,1.4c0,0.5,0.1,0.9,0.2,1.3
			c0.2-0.4,0.7-0.6,1.1-0.6h8.5C31.4,28.8,33.3,30.1,34.1,31.9z"/>
		<path id="XMLID_10253_" class="st2" d="M34.1,31.9L34.1,31.9c0-2.9-2.3-5.2-5.2-5.2h-8.1c-0.8,0-1.4,0.6-1.4,1.4v0
			c0,2.1,1.7,3.8,3.8,3.8h4.1"/>
	</g>
</g>
</svg>
